<svg width="1024" height="1024" viewBox="0 0 1024 1024" fill="none" xmlns="http://www.w3.org/2000/svg">
<rect width="1024" height="1024" rx="151" fill="#1E40AF"/>
<path d="M613.863 133.54L676.939 149.31L619.119 401.615L687.452 524.263L629.632 662.681L661.17 715.244L629.632 727.509L675.187 822.123L566.555 892.208L398.352 850.157L421.129 745.03L405.36 741.526L417.625 676.698L361.557 601.356V543.536L323.011 499.733L361.557 452.426L345.788 431.401L391.343 377.085L438.651 380.589L387.839 145.805L456.172 130.036L515.744 356.06L538.521 359.564L613.863 133.54Z" fill="white"/>
<path d="M632.107 718.499H631.999V718.392L616.416 724.455L520.66 761.329L508.731 758.476V758.369L492.682 754.518L489.135 770.708L469.576 859.328L466.029 875.412V875.519L482.186 879.37L485.732 863.18L503.536 781.514L505.077 774.596L519.12 778.019L522.774 778.233L624.512 739.148V739.041L640.095 733.085L632.143 718.571L632.107 718.499Z" fill="#4C76FF"/>
<path d="M690.033 823.845L572.282 900.875L482.186 879.299L485.696 863.109L569.201 883.044L668.145 818.317L624.476 739.077V738.97L640.06 733.014L690.033 823.845Z" fill="#4C76FF"/>
<path d="M504.181 703.201L505.077 703.415L505.507 703.308L504.181 703.201ZM632.107 718.5H631.999V718.393L609.108 676.776V676.669L600.94 661.905L584.354 666.184L542.333 677.203L525.532 681.59L505.972 686.654L494.581 684.015L492.718 683.587L480 680.627L476.454 696.604L465.17 747.885V747.992L461.623 764.076L477.779 767.927L489.064 770.673H489.171L505.077 774.525L519.12 777.948L522.774 778.162L624.512 739.077V738.97L640.096 733.014L632.143 718.5H632.107ZM520.66 761.294L508.731 758.441V758.334L492.682 754.483L481.29 751.737L492.575 700.455L504.074 703.201H504.181L505.077 703.415L505.507 703.308L531.944 696.604L541.688 694.072L589.907 681.733L592.558 681.055L616.452 724.42L520.696 761.294H520.66Z" fill="#4C76FF"/>
<path d="M609.108 676.669V676.776L623.581 672.924L609.108 676.669ZM638.949 661.37L634.543 653.346L600.94 661.94L584.354 666.22L592.522 681.091L616.416 724.455L624.476 738.97L640.059 733.014L671.692 720.889L638.949 661.334V661.37ZM632.107 718.5H631.999V718.393L609.108 676.776L623.581 672.924L626.017 672.246L648.012 712.295L632.107 718.464V718.5ZM609.108 676.669V676.776L623.581 672.924L609.108 676.669Z" fill="#4C76FF"/>
<path d="M492.682 754.483L481.29 751.844L465.134 747.992L433.287 740.396L429.095 739.398L414.945 735.439L414.838 735.867L411.291 752.058L388.4 856.19L466.029 875.341L482.186 879.299L485.732 863.109L503.536 781.443L505.077 774.525L508.731 758.441V758.334L492.682 754.483ZM407.995 844.636L427.447 755.909L461.623 764.04L477.779 767.892L489.064 770.638L469.612 859.257L408.031 844.636H407.995Z" fill="#4C76FF"/>
<path d="M433.286 740.396L465.133 747.992V747.885L433.286 740.396ZM437.621 670.392L421.93 666.648L412.545 664.437L409.679 677.881L394.525 748.099L411.327 752.058L427.483 755.909L461.659 764.04L477.815 767.892L481.361 751.808V751.701L492.646 700.419L494.401 692.288L494.616 684.051V683.944L437.657 670.392H437.621ZM465.133 747.885L433.286 740.396L429.095 739.398L414.837 735.867L414.157 735.76L422.898 695.712L425.334 684.479H425.549L476.418 696.604L465.133 747.885Z" fill="#4C76FF"/>
<path d="M461.73 123.589L380.59 144.594L399.29 237.065L402.622 253.362L418.778 249.19L474.161 234.889L490.067 230.717H490.174L461.766 123.624L461.73 123.589ZM415.375 232.892L399.792 156.719L449.98 143.631L469.755 218.806L415.339 232.892H415.375Z" fill="#4C76FF"/>
<path d="M510.593 307.961L490.031 230.681L485.839 214.705L469.79 218.77L415.375 232.857L399.218 237.029L402.55 253.327L418.599 331.711L421.93 348.009H422.038L438.087 343.836L498.664 328.109L514.821 323.937L510.629 307.961H510.593ZM418.706 249.154L474.089 234.747V234.854L494.437 312.026L434.719 327.539L418.67 249.154H418.706Z" fill="#4C76FF"/>
<path d="M610.004 123.125L577.942 217.344L572.64 233.071L588.796 236.922L645.755 250.581L661.804 254.432L665.458 238.242L687.239 141.598L610.075 123.089L610.004 123.125ZM649.23 234.426L594.062 221.231L620.822 142.739L667.464 153.973L649.23 234.426Z" fill="#4C76FF"/>
<path d="M649.231 234.426L594.063 221.231L577.906 217.379L572.604 233.106L544.519 315.45L539.217 331.176L555.373 335.028L622.936 351.218L638.985 355.07L642.639 338.879L661.769 254.468L665.423 238.277L649.266 234.426H649.231ZM626.59 335.028L560.675 319.301L588.761 236.958L645.72 250.616L626.59 335.028Z" fill="#4C76FF"/>
<path d="M537.999 483.952L521.197 465.8L520.409 464.908L492.539 434.738L470.077 410.31L446.29 384.562V384.455L443.21 381.139L427.841 376.396L389.152 364.734L382.525 373.115L375.217 382.351L337.28 430.352L351.322 449.823L311.2 497.717L352.899 541.403L355.657 544.363L369.807 556.452L417.918 597.606L461.909 542.009L484.908 560.054L538.428 484.344L537.999 483.916V483.952ZM415.733 573.855L375.718 539.62L366.655 531.917L363.467 528.494L333.375 497.004L364.219 460.344L372.387 450.644L365.186 440.516L358.093 430.709L388.83 391.73L395.135 383.813L434.146 395.582L483.905 449.502L492.18 458.525L517.185 485.592L481.362 536.232L459.259 518.829L451.091 529.171L415.697 573.748L415.733 573.855Z" fill="#4C76FF"/>
<path d="M650.556 438.376L646.364 430.994L630.316 402.251L628.883 399.719L630.101 394.12L638.949 355.034L642.603 338.844L626.554 334.992L560.639 319.265L544.483 315.414L539.181 331.141L531.98 352.288L521.699 350.291L514.749 323.866L510.558 307.889L434.719 327.468L418.563 331.64L422.002 347.938L427.877 376.324L429.525 384.562L431.065 392.158L434.146 395.582L483.905 449.502L492.073 458.418L492.18 458.525L517.185 485.592L481.362 536.232L459.259 518.829L451.091 529.171L415.697 573.748L375.682 539.513L366.619 531.81L363.073 528.85L352.361 519.614L352.899 541.296L354.332 603.276L409.607 677.81L422.862 695.641L423.292 696.318L425.513 684.443L476.382 696.568L492.539 700.419L504.038 703.165H504.145L505.471 703.272L507.119 703.379L533.198 696.568L541.617 694.357L589.835 681.697L592.486 681.019L609.072 676.74V676.633L623.545 672.888L625.981 672.211L635.259 669.786L638.913 661.298L672.516 582.058L676.707 572.144L677.495 570.289L697.735 522.859L650.52 438.34L650.556 438.376ZM623.151 655.985L584.354 666.22L542.333 677.132V677.239L525.532 681.519V681.626L505.972 686.69L494.58 684.051L492.718 683.623L437.657 670.428L421.966 666.683L370.775 597.784L369.879 556.524L417.99 597.678L461.981 542.081L484.98 560.126L538.5 484.415L538.07 483.987V483.881L521.269 465.836L520.481 464.944L492.61 434.774L470.149 410.346L446.362 384.598V384.491L438.087 343.872L498.664 328.145L508.301 364.699L543.121 371.296L555.409 335.099L622.972 351.29L613.335 394.227L611.472 402.464L616.129 410.702L629.742 435.024L638.018 449.788L679.465 523.964L663.775 560.839L657.255 576.138L623.187 656.056L623.151 655.985ZM525.532 681.519V681.626L505.972 686.69L494.58 684.051L494.366 692.288L492.61 700.419L504.11 703.165H504.217L505.542 703.272L507.19 703.379L533.27 696.568L541.688 694.357V694.036L542.369 677.203L525.568 681.483L525.532 681.519ZM542.333 677.096V677.203L584.354 666.184L542.333 677.096Z" fill="#4C76FF"/>
<path d="M521.197 465.764L520.409 464.873L492.753 434.489L470.435 409.953L470.113 410.274L464.023 416.979L429.525 384.634L425.441 380.782L382.525 373.079L375.217 382.316L395.6 383.849L440.917 415.552L453.956 427.784L414.192 472.362L365.114 440.551L355.621 453.532L364.147 460.344L398.108 487.197L363.395 528.458L363.072 528.886L356.767 536.375L369.485 546.931L375.682 539.549L411.076 497.396L451.091 529.207L469.002 543.4L486.699 549.998L535.67 482.525L536.1 481.99L521.161 465.693L521.197 465.764ZM429.883 491.298L469.038 445.794L511.274 487.161L508.193 492.368L480.537 530.455L478.316 529.67L429.883 491.263V491.298Z" fill="#4C76FF"/>
<path d="M650.556 438.376L637.946 449.716L580.235 501.676L576.043 504.529L571.279 502.318L537.999 483.952V483.845L492.252 458.632L492.109 458.525L481.935 452.89L483.941 449.609L492.575 434.738L516.326 394.12H630.101L628.883 399.754L630.316 402.286V410.631H525.855L504.719 446.507L574.18 485.057L629.671 434.952L640.848 424.824L646.365 430.994L650.556 438.376Z" fill="#4C76FF"/>
<path d="M678.964 566.83L677.531 570.361L676.779 572.215L672.552 582.129L657.183 576.066L573.5 542.937L567.41 495.934L583.781 493.723L588.653 531.061L663.739 560.768L678.964 566.83Z" fill="#4C76FF"/>
<path d="M587.22 536.874L580.7 545.789L545.522 594.218L542.333 677.096V677.203L541.653 694.071V694.392L533.27 696.604H531.945L524.959 696.247L525.532 681.626V681.519L529.15 588.512L571.852 529.849L573.715 527.21L587.22 536.874Z" fill="#4C76FF"/>
</svg>
