<?xml version="1.0" encoding="UTF-8"?>
<svg id="Layer_1" xmlns="http://www.w3.org/2000/svg" version="1.1" viewBox="0 0 24 24">
  <!-- Generator: Adobe Illustrator 30.1.0, SVG Export Plug-In . SVG Version: 2.1.1 Build 136)  -->
  <defs>
    <style>
      .st0 {
        fill: #fff;
      }
    </style>
  </defs>
  <path class="st0" d="M6.8,16.5c-.4-.5-.7-1.3-1.4-2.4-.4-.6-1.4-1.8-1.8-2.3-.2-.5-.2-.7-.1-1.2.1-.7.8-1.3,1.7-1.3s1.2.5,1.7.8c.2.2.6.7.8,1,.2.2.2.4.5.6.2.4.4.6.2.1-.1-.6-.2-1.5-.5-2.5-.1-.7-.2-.8-.4-1.3-.1-.6-.2-1-.4-1.5-.1-.4-.2-1.3-.4-1.8-.1-.6-.1-1.7.4-2.1s1.1-.5,1.5-.2c.6.4,1,1.2,1.1,1.5.2.6.5,1.4.6,2.4.2,1.2.6,3,.6,3.3,0-.5-.1-1.3,0-1.8.1-.4.4-.8.8-1,.4-.1.7-.1,1.1-.1.4.1.7.4,1,.6.5.7.5,2.3.5,2.1.1-.5.1-1.4.4-1.9.1-.2.6-.5.8-.6.4-.1.8-.1,1.2,0,.2,0,.7.4.8.6.2.4.4,1.5.5,2,0,.1.1-.5.4-.8.5-.7,2.1-1,2.3.7v2.7c0,.5-.1,1.5-.2,2-.1.4-.5,1.2-.8,1.7,0,0-1.3,1.4-1.4,2.1q-.1.7-.1,1.2c0,.5.1,1.1.1,1.1,0,0-1,.1-1.4,0-.5-.1-1.1-1-1.2-1.3-.2-.4-.6-.4-.8,0-.2.5-.8,1.3-1.3,1.3-.8.1-2.5,0-3.7,0,0,0,.2-1.2-.2-1.7-.4-.4-1-1-1.3-1.3l-1.3-.8Z"/>
  <path d="M12.3,20.8c-.4,0-.9,0-1.4,0-.4,0-.9,0-1.3,0s-.3,0-.3-.2c0-.1-.1-.2,0-.4,0-.4,0-1.1-.1-1.3l-1.3-1.3-1.2-.8s0,0-.1-.1c-.2-.2-.4-.6-.6-.9-.2-.4-.5-.9-.9-1.5-.2-.4-.8-1-1.2-1.5-.2-.3-.5-.6-.6-.7-.3-.7-.3-1-.2-1.6.1-.9,1.1-1.6,2.1-1.6s1.3.5,1.8.9c0,0,.1,0,.1.1.1.1.3.3.4.5,0,0,0,0,.1.1,0-.3-.1-.7-.2-1,0-.4-.1-.6-.2-.8,0-.1,0-.3-.1-.5,0-.3-.1-.5-.2-.8,0-.2-.1-.5-.2-.8,0-.2-.1-.6-.2-1,0-.3-.1-.6-.2-.8-.1-.6-.2-1.9.5-2.6.5-.5,1.4-.6,2.1-.3.8.5,1.2,1.5,1.3,1.8.3.7.5,1.6.6,2.5,0,.2,0,.5.1.7.2-.3.5-.4.7-.5.4-.1.8-.1,1.2-.1s0,0,.1,0c.4.1.8.4,1.1.7,0,0,.1.2.2.3.2-.3.6-.5,1-.7.5-.2,1-.2,1.5,0,.5,0,1,.5,1.1.8.1.2.2.5.3.9.4-.4,1.1-.6,1.7-.4.7.2,1.1.8,1.2,1.6v2.8c0,.5-.1,1.6-.2,2.1-.1.4-.5,1.3-.9,1.8-.5.6-1.3,1.5-1.3,1.9q-.1.7-.1,1.1c0,.4.1,1,.1,1,0,.1,0,.2,0,.3,0,.1-.2.2-.3.2-.1,0-1,.1-1.6,0-.6-.2-1.3-1-1.5-1.5-.1,0-.9,1.5-1.8,1.5-.3,0-.6,0-1.1,0ZM10.2,19.8c.3,0,.5,0,.8,0,.9,0,1.8,0,2.3,0,.2,0,.7-.5,1-1.1.5-.7,1.2-.7,1.6,0,0,0,0,0,0,.1,0,.3.6,1,.9,1,.2,0,.5,0,.8,0,0-.2,0-.4,0-.7,0-.5,0-.5.1-1.3.1-.8,1.3-2.1,1.5-2.4.3-.4.6-1.2.7-1.5.1-.4.2-1.5.2-1.9v-2.7c0-.4-.2-.7-.5-.8-.3,0-.8,0-.9.3-.1.2-.2.5-.3.6-.1.3-.3.5-.5.4-.2,0-.4-.2-.4-.5,0,0,0-.3-.1-.5,0-.4-.2-1.1-.3-1.2,0-.2-.4-.4-.5-.4,0,0,0,0-.1,0-.3,0-.6,0-.9,0-.4.2-.5.3-.6.4-.1.2-.2.7-.2,1.1,0,.3,0,.5-.1.7,0,.2-.2.3-.4.3h0c-.2,0-.4-.2-.4-.4,0-.5-.1-1.5-.4-1.9-.1-.1-.4-.3-.7-.4-.3,0-.6,0-.9,0-.3,0-.5.4-.6.7,0,.2,0,.7,0,1.1,0,.2,0,.4,0,.6,0,.2-.2.4-.4.4s-.4-.2-.4-.4-.4-2.3-.6-3.2c-.1-1.1-.4-1.9-.6-2.3-.1-.4-.4-1.1-.9-1.3-.3-.1-.8,0-1,.2-.3.3-.4,1.1-.2,1.7,0,.2.1.5.2.8,0,.4.1.7.2.9,0,.3.1.6.2.8,0,.2.1.5.2.8,0,.1,0,.3.1.4,0,.2.2.5.2.9.2.6.3,1.3.4,1.8,0,.3,0,.5.1.7,0,.2.2.6-.2.8-.4.2-.6-.2-.7-.4v-.2c-.2,0-.3-.2-.3-.3,0,0,0-.1-.2-.2s-.3-.3-.4-.5c-.1-.2-.3-.3-.4-.4-.4-.3-.9-.7-1.4-.7-.6,0-1.1.4-1.2.9-.1.4-.1.5,0,.9,0,0,.3.3.5.6.5.6,1,1.2,1.2,1.6.4.6.7,1.1.9,1.5.2.3.3.6.5.8l1.2.8,1.4,1.4c.4.4.5,1.1.4,1.5Z"/>
  <path d="M16.7,17.3c-.2,0-.4-.2-.4-.4v-4c0-.2.2-.4.4-.4s.4.2.4.4v4c0,.2-.2.4-.4.4Z"/>
  <path d="M14.3,17.3c-.2,0-.4-.2-.4-.4v-4c-.1-.2,0-.5.3-.5.2,0,.5.2.5.4v4c.1.2,0,.5-.3.5h0Z"/>
  <path d="M11.9,17.3c-.2,0-.4-.2-.4-.4v-4c0-.2.2-.4.4-.4s.4.2.4.4v4c0,.2-.2.4-.4.4Z"/>
</svg>