<?xml version="1.0" encoding="UTF-8"?>
<svg id="Layer_1" data-name="Layer 1" xmlns="http://www.w3.org/2000/svg" viewBox="0 0 2356.09 767.09">
  <defs>
    <style>
      .cls-1 {
        fill: #1E40AF;
      }
    </style>
  </defs>
  <path class="cls-1" d="M342.8,583.13l-31.13-56.89,31.97-75.71,4-9.46.74-1.79,19.24-45.32-44.9-80.76-4-7.05-15.25-27.44-1.37-2.42,1.16-5.36,8.41-37.33,3.47-15.46,18.19-80.65,3.47-15.46,20.71-92.33-73.4-17.67-30.49,90.01-5.05,15.04-26.71,78.66-5.05,15.04-6.83,20.19-9.78-1.89-6.62-25.24-4-15.25-19.56-73.82h.11l-27.02-102.31-77.18,20.08,17.77,88.33,3.15,15.56,15.25,74.87,3.15,15.56h.11l5.57,27.13-36.8-11.15-6.31,7.99-6.94,8.83-36.07,45.85,13.35,18.61L0,369.87l39.64,41.75,1.37,59.2,52.58,71.19-14.41,67.09,15.98,3.79-21.77,99.48,73.82,18.3v.11l15.35,3.68,85.7,20.61,111.99-73.61-47.53-86.75,30.07-11.57ZM172.56,615.2l-10.83-2.63,10.73-49,10.94,2.63h.1l.84.21.42-.11,1.58.11,24.82-6.52,7.99-2.1,45.85-12.09,2.52-.63,22.71,41.43-91.06,35.23-11.36-2.73v-.11l-15.25-3.68ZM296.64,521.08l-36.91,9.78-39.96,10.41,3.05-79.18,33.44-46.27h0s72.76,28.92,72.76,28.92l-32.39,76.34ZM190.22,359.85l-2.94,4.98-26.29,36.38-2.1-.74-46.06-36.7,37.22-43.46,40.17,39.54ZM133.02,400.05l-33.65,42.59-38.07-32.7,33.65-40.27,38.07,30.39ZM184.02,320.98l20.09-34.28h85.81l12.93,23.24-52.79,47.85-66.04-36.8ZM350.16,394.9l-14.93,35.23-71.4-28.39-4.1-31.59,51-46.11,39.43,70.87ZM294.43,30.75l44.38,10.73-17.35,76.87-52.47-12.62,25.45-74.97ZM263.94,120.76l54.15,13.04-18.19,80.65-62.67-15.04,26.71-78.66ZM84.23,44.1l47.74-12.51,18.82,71.82-51.74,13.46-14.83-72.77ZM102.21,132.43l52.68-13.67,19.35,73.71-56.78,14.83-15.25-74.87ZM178.24,207.83l9.15,34.91,33.12,6.31,11.67-34.6,64.25,15.46-9.15,41.01h-92.22l-22.45,38.53-21.19-23.39-.32.32-22.61-24.61v-.11l-7.89-38.8,57.62-15.04ZM73.82,268.71l5.99-7.57.83.25,42.75,30.03,12.41,11.67-37.8,42.59-46.69-30.39-6.73-9.36,29.23-37.22ZM50.37,334.22l32.28,25.66-33.02,39.43-28.6-30.07,29.34-35.02ZM56.57,465.46l-.84-39.43,45.74,39.33,41.85-53.1,21.87,17.25,50.89-72.35-.42-.42,28.53,15.83,3.61,28.06-40.56,56.01-3.47,88.86v.1l-18.61,4.84-10.83-2.52v-.11l-54.16-12.93-14.93-3.58-48.69-65.83ZM97.9,597.32l8.31-38.28.42.63,2.1-11.36,48.37,11.57-10.73,49-30.28-7.15-4-.95-13.46-3.79-.11.42-.63-.11ZM92.01,701.32l18.51-84.75,32.49,7.78,15.35,3.68,10.73,2.63-18.51,84.65-58.57-13.99ZM339.44,676.19l-94.11,61.83-79.39-19.03,16.93-78.02,1.47-6.63,13.35,3.26,3.47.21,96.74-37.33,41.54,75.71ZM305.05,580.81v-.11l-21.77-39.75,13.77-3.68,2.31-.63,20.93,38.28-15.14,5.89h-.1Z"/>
  <g>
    <g>
      <path class="cls-1" d="M563.79,68.43l63,101.72c2.75,4.82,5.59,9.99,8.52,15.49,2.92,5.51,5.5,11.19,7.75,17.04,2.23,5.86,4.04,11.88,5.42,18.07,1.37,6.2,2.07,12.39,2.07,18.59v12.39h17.04v-12.39c0-6.2.6-12.39,1.81-18.59,1.2-6.2,3.01-12.3,5.42-18.33,2.41-6.02,4.99-11.7,7.75-17.04,2.75-5.33,5.68-10.41,8.78-15.23l62.48-101.72h73.84l-133.74,213.78v173.5h-70.23v-173.5l-133.74-213.78h73.84Z"/>
      <path class="cls-1" d="M860.18,455.71V68.43h269.54v64.03h-198.8v97.6h183.31v63.51h-183.31v98.11h198.8v64.03h-269.54Z"/>
      <path class="cls-1" d="M1190.39,130.14c6.37-13.94,15.92-25.99,28.66-36.15,12.73-10.15,28.74-18.15,48.02-24.01,19.27-5.85,41.65-8.78,67.13-8.78s47.76,3.19,66.87,9.55c19.1,6.37,35.02,14.9,47.76,25.56,12.73,10.68,22.29,23.07,28.66,37.18,6.37,14.12,9.72,29.09,10.07,44.92h-74.87c0-6.53-1.47-13.08-4.39-19.62-2.93-6.53-7.66-12.3-14.2-17.3-6.54-4.98-14.8-9.04-24.79-12.13-9.99-3.1-21.69-4.65-35.11-4.65-27.2,0-47.08,4.57-59.64,13.68-12.57,9.13-18.85,21.43-18.85,36.92,0,9.99,3.44,17.9,10.33,23.75,6.88,5.86,16.01,10.58,27.37,14.2,11.36,3.61,24.44,6.45,39.24,8.52,14.8,2.06,29.77,4.56,44.92,7.49,15.14,2.93,30.03,6.71,44.67,11.36,14.63,4.65,27.63,11.19,38.99,19.62,11.36,8.44,20.57,19.36,27.63,32.79,7.05,13.43,10.59,30.3,10.59,50.6,0,17.22-3.79,33.05-11.36,47.5-7.58,14.46-18.51,26.85-32.79,37.18-14.29,10.33-31.68,18.33-52.15,24.01-20.49,5.68-43.46,8.52-68.94,8.52s-48.37-3.19-68.68-9.55c-20.32-6.36-37.61-15.15-51.9-26.33-14.29-11.18-25.22-24.44-32.79-39.76-7.58-15.31-11.54-31.93-11.88-49.83h74.87c0,8.61,2.15,16.61,6.45,24.01,4.3,7.41,10.41,13.94,18.33,19.62,7.92,5.68,17.47,10.07,28.66,13.17,11.18,3.1,23.49,4.65,36.92,4.65s25.73-1.03,36.92-3.1c11.18-2.06,20.73-5.33,28.66-9.81,7.91-4.47,14.02-10.07,18.33-16.78,4.3-6.71,6.45-14.54,6.45-23.5,0-11.36-3.45-20.48-10.33-27.37-6.89-6.88-16.1-12.39-27.63-16.53-11.54-4.13-24.62-7.4-39.24-9.81-14.63-2.41-29.52-5.08-44.67-8.01-15.15-2.92-30.04-6.62-44.67-11.1-14.64-4.47-27.63-10.58-38.99-18.33-11.36-7.75-20.57-17.82-27.63-30.21-7.06-12.39-10.59-28.05-10.59-46.99,0-16.18,3.18-31.24,9.55-45.18Z"/>
      <path class="cls-1" d="M1550.81,130.14c6.37-13.94,15.92-25.99,28.66-36.15,12.73-10.15,28.74-18.15,48.02-24.01,19.27-5.85,41.65-8.78,67.13-8.78s47.76,3.19,66.87,9.55c19.1,6.37,35.02,14.9,47.76,25.56,12.73,10.68,22.29,23.07,28.66,37.18,6.37,14.12,9.72,29.09,10.07,44.92h-74.87c0-6.53-1.47-13.08-4.39-19.62-2.93-6.53-7.66-12.3-14.2-17.3-6.54-4.98-14.8-9.04-24.79-12.13-9.99-3.1-21.69-4.65-35.11-4.65-27.2,0-47.08,4.57-59.64,13.68-12.57,9.13-18.85,21.43-18.85,36.92,0,9.99,3.44,17.9,10.33,23.75,6.88,5.86,16.01,10.58,27.37,14.2,11.36,3.61,24.44,6.45,39.24,8.52,14.8,2.06,29.77,4.56,44.92,7.49,15.14,2.93,30.03,6.71,44.67,11.36,14.63,4.65,27.63,11.19,38.99,19.62,11.36,8.44,20.57,19.36,27.63,32.79,7.05,13.43,10.59,30.3,10.59,50.6,0,17.22-3.79,33.05-11.36,47.5-7.58,14.46-18.51,26.85-32.79,37.18-14.29,10.33-31.68,18.33-52.15,24.01-20.49,5.68-43.46,8.52-68.94,8.52s-48.37-3.19-68.68-9.55c-20.32-6.36-37.61-15.15-51.9-26.33-14.29-11.18-25.22-24.44-32.79-39.76-7.58-15.31-11.54-31.93-11.88-49.83h74.87c0,8.61,2.15,16.61,6.45,24.01,4.3,7.41,10.41,13.94,18.33,19.62,7.92,5.68,17.47,10.07,28.66,13.17,11.18,3.1,23.49,4.65,36.92,4.65s25.73-1.03,36.92-3.1c11.18-2.06,20.73-5.33,28.66-9.81,7.91-4.47,14.02-10.07,18.33-16.78,4.3-6.71,6.45-14.54,6.45-23.5,0-11.36-3.45-20.48-10.33-27.37-6.89-6.88-16.1-12.39-27.63-16.53-11.54-4.13-24.62-7.4-39.24-9.81-14.63-2.41-29.52-5.08-44.67-8.01-15.15-2.92-30.04-6.62-44.67-11.1-14.64-4.47-27.63-10.58-38.99-18.33-11.36-7.75-20.57-17.82-27.63-30.21-7.06-12.39-10.59-28.05-10.59-46.99,0-16.18,3.18-31.24,9.55-45.18Z"/>
      <path class="cls-1" d="M1907.88,68.43h70.74v387.27h-70.74V68.43Z"/>
      <path class="cls-1" d="M2356.09,455.71h-74.87l-81.59-142h-84.17v142h-70.74V68.43h155.94c48.19,0,85.11,10.67,110.76,32.01,25.64,21.35,38.47,51.64,38.47,90.88,0,20.32-2.84,37.18-8.52,50.6-5.68,13.43-12.65,23.93-20.91,31.5-8.26,7.58-17.13,12.83-26.59,15.75-9.47,2.93-18.33,4.39-26.59,4.39-5.16,0-9.99-.43-14.46-1.29-4.48-.86-8.78-1.81-12.91-2.84l-4.65,16.01c9.29,1.38,17.38,4.05,24.27,8,6.88,3.96,13.25,9.21,19.11,15.75,5.85,6.54,11.62,14.2,17.3,22.98,5.68,8.78,11.62,18.85,17.82,30.21l42.34,73.32ZM2115.46,132.46v117.73h85.2c24.09,0,42.68-4.9,55.77-14.72,13.08-9.81,19.62-24.53,19.62-44.15s-6.54-34.77-19.62-44.41c-13.09-9.64-31.68-14.46-55.77-14.46h-85.2Z"/>
    </g>
    <g>
      <path class="cls-1" d="M698.02,519.58c37.56,0,63.45,25,63.45,62.69s-26.78,62.69-65.36,62.69h-34.26v57.74h-38.33v-183.13h74.49ZM661.85,615.02h25.89c21.95,0,34.77-11.68,34.77-32.62s-12.69-32.49-34.65-32.49h-26.02v65.1Z"/>
      <path class="cls-1" d="M954.98,611.21c0,58.25-34.14,94.67-88.33,94.67s-88.33-36.42-88.33-94.67,34.01-94.8,88.33-94.8,88.33,36.42,88.33,94.8ZM817.42,611.21c0,38.33,19.16,62.56,49.24,62.56s49.11-24.24,49.11-62.56-19.16-62.82-49.11-62.82-49.24,24.37-49.24,62.82Z"/>
      <path class="cls-1" d="M1009.65,650.55c1.78,15.1,17.51,25,37.82,25s34.39-9.77,34.39-23.23c0-11.93-8.76-18.53-30.84-23.48l-23.86-5.2c-33.76-7.23-50.38-24.37-50.38-51.14,0-33.76,29.19-56.09,70.05-56.09s69.42,21.95,70.05,55.08h-35.92c-1.27-15.48-14.85-24.87-34.01-24.87s-31.6,9.01-31.6,22.59c0,11.29,8.88,17.64,29.95,22.46l22.21,4.69c36.68,7.87,52.67,23.6,52.67,51.53,0,35.53-28.81,57.99-74.24,57.99s-72.08-20.94-73.22-55.33h36.93Z"/>
      <path class="cls-1" d="M1225.11,650.55c1.78,15.1,17.51,25,37.82,25s34.39-9.77,34.39-23.23c0-11.93-8.76-18.53-30.84-23.48l-23.86-5.2c-33.76-7.23-50.38-24.37-50.38-51.14,0-33.76,29.19-56.09,70.05-56.09s69.42,21.95,70.05,55.08h-35.92c-1.27-15.48-14.85-24.87-34.01-24.87s-31.6,9.01-31.6,22.59c0,11.29,8.88,17.64,29.95,22.46l22.21,4.69c36.68,7.87,52.67,23.6,52.67,51.53,0,35.53-28.81,57.99-74.24,57.99s-72.08-20.94-73.22-55.33h36.93Z"/>
      <path class="cls-1" d="M1406.06,702.71v-68.4l-63.71-114.72h41.75l40.99,78.17h.89l41.12-78.17h41.12l-63.83,114.72v68.4h-38.33Z"/>
      <path class="cls-1" d="M1551.85,650.55c1.78,15.1,17.51,25,37.82,25s34.39-9.77,34.39-23.23c0-11.93-8.76-18.53-30.84-23.48l-23.86-5.2c-33.76-7.23-50.38-24.37-50.38-51.14,0-33.76,29.19-56.09,70.05-56.09s69.42,21.95,70.05,55.08h-35.92c-1.27-15.48-14.85-24.87-34.01-24.87s-31.6,9.01-31.6,22.59c0,11.29,8.88,17.64,29.95,22.46l22.21,4.69c36.68,7.87,52.67,23.6,52.67,51.53,0,35.53-28.81,57.99-74.24,57.99s-72.08-20.94-73.22-55.33h36.93Z"/>
      <path class="cls-1" d="M1729.62,702.71v-151.53h-52.92v-31.6h144.29v31.6h-53.05v151.53h-38.33Z"/>
      <path class="cls-1" d="M1963.49,702.71h-121.32v-183.13h121.32v31.6h-83v44.17h78.3v29.44h-78.3v46.19h83v31.73Z"/>
      <path class="cls-1" d="M2150.91,702.71v-123.61h-1.02l-49.75,121.83h-24.11l-49.75-121.83h-1.01v123.61h-34.14v-183.13h44.42l52.03,129.82h1.02l52.03-129.82h44.42v183.13h-34.14Z"/>
      <path class="cls-1" d="M2245.55,650.55c1.78,15.1,17.51,25,37.82,25s34.39-9.77,34.39-23.23c0-11.93-8.76-18.53-30.84-23.48l-23.86-5.2c-33.76-7.23-50.38-24.37-50.38-51.14,0-33.76,29.19-56.09,70.05-56.09s69.42,21.95,70.05,55.08h-35.92c-1.27-15.48-14.85-24.87-34.01-24.87s-31.6,9.01-31.6,22.59c0,11.29,8.88,17.64,29.95,22.46l22.21,4.69c36.68,7.87,52.67,23.6,52.67,51.53,0,35.53-28.81,57.99-74.24,57.99s-72.08-20.94-73.22-55.33h36.93Z"/>
    </g>
  </g>
</svg>