<svg width="1867" height="645" viewBox="0 0 1867 645" fill="none" xmlns="http://www.w3.org/2000/svg">
<path d="M73.83 7.23L136.83 108.95C139.58 113.77 142.42 118.94 145.35 124.44C148.27 129.95 150.85 135.63 153.1 141.48C155.33 147.34 157.14 153.36 158.52 159.55C159.89 165.75 160.59 171.94 160.59 178.14V190.53H177.63V178.14C177.63 171.94 178.23 165.75 179.44 159.55C180.64 153.35 182.45 147.25 184.86 141.22C187.27 135.2 189.85 129.52 192.61 124.18C195.36 118.85 198.29 113.77 201.39 108.95L263.87 7.23H337.71L203.97 221.01V394.51H133.74V221.01L0 7.23H73.84H73.83Z" fill="#8745F3"/>
<path d="M370.22 394.51V7.23H639.76V71.26H440.96V168.86H624.27V232.37H440.96V330.48H639.76V394.51H370.22Z" fill="#8745F3"/>
<path d="M700.43 68.94C706.8 55 716.35 42.95 729.09 32.79C741.82 22.64 757.83 14.64 777.11 8.78C796.38 2.93 818.76 0 844.24 0C869.72 0 892 3.19 911.11 9.55C930.21 15.92 946.13 24.45 958.87 35.11C971.6 45.79 981.16 58.18 987.53 72.29C993.9 86.41 997.25 101.38 997.6 117.21H922.73C922.73 110.68 921.26 104.13 918.34 97.59C915.41 91.06 910.68 85.29 904.14 80.29C897.6 75.31 889.34 71.25 879.35 68.16C869.36 65.06 857.66 63.51 844.24 63.51C817.04 63.51 797.16 68.08 784.6 77.19C772.03 86.32 765.75 98.62 765.75 114.11C765.75 124.1 769.19 132.01 776.08 137.86C782.96 143.72 792.09 148.44 803.45 152.06C814.81 155.67 827.89 158.51 842.69 160.58C857.49 162.64 872.46 165.14 887.61 168.07C902.75 171 917.64 174.78 932.28 179.43C946.91 184.08 959.91 190.62 971.27 199.05C982.63 207.49 991.84 218.41 998.9 231.84C1005.95 245.27 1009.49 262.14 1009.49 282.44C1009.49 299.66 1005.7 315.49 998.13 329.94C990.55 344.4 979.62 356.79 965.34 367.12C951.05 377.45 933.66 385.45 913.19 391.13C892.7 396.81 869.73 399.65 844.25 399.65C818.77 399.65 795.88 396.46 775.57 390.1C755.25 383.74 737.96 374.95 723.67 363.77C709.38 352.59 698.45 339.33 690.88 324.01C683.3 308.7 679.34 292.08 679 274.18H753.87C753.87 282.79 756.02 290.79 760.32 298.19C764.62 305.6 770.73 312.13 778.65 317.81C786.57 323.49 796.12 327.88 807.31 330.98C818.49 334.08 830.8 335.63 844.23 335.63C857.66 335.63 869.96 334.6 881.15 332.53C892.33 330.47 901.88 327.2 909.81 322.72C917.72 318.25 923.83 312.65 928.14 305.94C932.44 299.23 934.59 291.4 934.59 282.44C934.59 271.08 931.14 261.96 924.26 255.07C917.37 248.19 908.16 242.68 896.63 238.54C885.09 234.41 872.01 231.14 857.39 228.73C842.76 226.32 827.87 223.65 812.72 220.72C797.57 217.8 782.68 214.1 768.05 209.62C753.41 205.15 740.42 199.04 729.06 191.29C717.7 183.54 708.49 173.47 701.43 161.08C694.37 148.69 690.84 133.03 690.84 114.09C690.84 97.91 694.02 82.85 700.39 68.91L700.43 68.94Z" fill="#8745F3"/>
<path d="M1060.85 68.94C1067.22 55 1076.77 42.95 1089.51 32.79C1102.24 22.64 1118.25 14.64 1137.53 8.78C1156.8 2.93 1179.18 0 1204.66 0C1230.14 0 1252.42 3.19 1271.53 9.55C1290.63 15.92 1306.55 24.45 1319.29 35.11C1332.02 45.79 1341.58 58.18 1347.95 72.29C1354.32 86.41 1357.67 101.38 1358.02 117.21H1283.15C1283.15 110.68 1281.68 104.13 1278.76 97.59C1275.83 91.06 1271.1 85.29 1264.56 80.29C1258.02 75.31 1249.76 71.25 1239.77 68.16C1229.78 65.06 1218.08 63.51 1204.66 63.51C1177.46 63.51 1157.58 68.08 1145.02 77.19C1132.45 86.32 1126.17 98.62 1126.17 114.11C1126.17 124.1 1129.61 132.01 1136.5 137.86C1143.38 143.72 1152.51 148.44 1163.87 152.06C1175.23 155.67 1188.31 158.51 1203.11 160.58C1217.91 162.64 1232.88 165.14 1248.03 168.07C1263.17 171 1278.06 174.78 1292.7 179.43C1307.33 184.08 1320.33 190.62 1331.69 199.05C1343.05 207.49 1352.26 218.41 1359.32 231.84C1366.37 245.27 1369.91 262.14 1369.91 282.44C1369.91 299.66 1366.12 315.49 1358.55 329.94C1350.97 344.4 1340.04 356.79 1325.76 367.12C1311.47 377.45 1294.08 385.45 1273.61 391.13C1253.12 396.81 1230.15 399.65 1204.67 399.65C1179.19 399.65 1156.3 396.46 1135.99 390.1C1115.67 383.74 1098.38 374.95 1084.09 363.77C1069.8 352.59 1058.87 339.33 1051.3 324.01C1043.72 308.7 1039.76 292.08 1039.42 274.18H1114.29C1114.29 282.79 1116.44 290.79 1120.74 298.19C1125.04 305.6 1131.15 312.13 1139.07 317.81C1146.99 323.49 1156.54 327.88 1167.73 330.98C1178.91 334.08 1191.22 335.63 1204.65 335.63C1218.08 335.63 1230.38 334.6 1241.57 332.53C1252.75 330.47 1262.3 327.2 1270.23 322.72C1278.14 318.25 1284.25 312.65 1288.56 305.94C1292.86 299.23 1295.01 291.4 1295.01 282.44C1295.01 271.08 1291.56 261.96 1284.68 255.07C1277.79 248.19 1268.58 242.68 1257.05 238.54C1245.51 234.41 1232.43 231.14 1217.81 228.73C1203.18 226.32 1188.29 223.65 1173.14 220.72C1157.99 217.8 1143.1 214.1 1128.47 209.62C1113.83 205.15 1100.84 199.04 1089.48 191.29C1078.12 183.54 1068.91 173.47 1061.85 161.08C1054.79 148.69 1051.26 133.03 1051.26 114.09C1051.26 97.91 1054.44 82.85 1060.81 68.91L1060.85 68.94Z" fill="#8745F3"/>
<path d="M1417.92 7.23H1488.66V394.5H1417.92V7.23Z" fill="#8745F3"/>
<path d="M1866.13 394.51H1791.26L1709.67 252.51H1625.5V394.51H1554.76V7.23H1710.7C1758.89 7.23 1795.81 17.9 1821.46 39.24C1847.1 60.59 1859.93 90.88 1859.93 130.12C1859.93 150.44 1857.09 167.3 1851.41 180.72C1845.73 194.15 1838.76 204.65 1830.5 212.22C1822.24 219.8 1813.37 225.05 1803.91 227.97C1794.44 230.9 1785.58 232.36 1777.32 232.36C1772.16 232.36 1767.33 231.93 1762.86 231.07C1758.38 230.21 1754.08 229.26 1749.95 228.23L1745.3 244.24C1754.59 245.62 1762.68 248.29 1769.57 252.24C1776.45 256.2 1782.82 261.45 1788.68 267.99C1794.53 274.53 1800.3 282.19 1805.98 290.97C1811.66 299.75 1817.6 309.82 1823.8 321.18L1866.14 394.5L1866.13 394.51ZM1625.5 188.99H1710.7C1734.79 188.99 1753.38 184.09 1766.47 174.27C1779.55 164.46 1786.09 149.74 1786.09 130.12C1786.09 110.5 1779.55 95.35 1766.47 85.71C1753.38 76.07 1734.79 71.25 1710.7 71.25H1625.5V188.99Z" fill="#8745F3"/>
<path d="M208.06 458.38C245.62 458.38 271.51 483.38 271.51 521.07C271.51 558.76 244.73 583.76 206.15 583.76H171.89V641.5H133.56V458.37H208.05L208.06 458.38ZM171.89 553.82H197.78C219.73 553.82 232.55 542.14 232.55 521.2C232.55 500.26 219.86 488.71 197.9 488.71H171.88V553.81L171.89 553.82Z" fill="#8745F3"/>
<path d="M465.02 550.01C465.02 608.26 430.88 644.68 376.69 644.68C322.5 644.68 288.36 608.26 288.36 550.01C288.36 491.76 322.37 455.21 376.69 455.21C431.01 455.21 465.02 491.63 465.02 550.01ZM327.46 550.01C327.46 588.34 346.62 612.57 376.7 612.57C406.78 612.57 425.81 588.33 425.81 550.01C425.81 511.69 406.65 487.19 376.7 487.19C346.75 487.19 327.46 511.56 327.46 550.01Z" fill="#8745F3"/>
<path d="M519.69 589.35C521.47 604.45 537.2 614.35 557.51 614.35C577.82 614.35 591.9 604.58 591.9 591.12C591.9 579.19 583.14 572.59 561.06 567.64L537.2 562.44C503.44 555.21 486.82 538.07 486.82 511.3C486.82 477.54 516.01 455.21 556.87 455.21C597.73 455.21 626.29 477.16 626.92 510.29H591C589.73 494.81 576.15 485.42 556.99 485.42C537.83 485.42 525.39 494.43 525.39 508.01C525.39 519.3 534.27 525.65 555.34 530.47L577.55 535.16C614.23 543.03 630.22 558.76 630.22 586.69C630.22 622.22 601.41 644.68 555.98 644.68C510.55 644.68 483.9 623.74 482.76 589.35H519.69Z" fill="#8745F3"/>
<path d="M735.15 589.35C736.93 604.45 752.66 614.35 772.97 614.35C793.28 614.35 807.36 604.58 807.36 591.12C807.36 579.19 798.6 572.59 776.52 567.64L752.66 562.44C718.9 555.21 702.28 538.07 702.28 511.3C702.28 477.54 731.47 455.21 772.33 455.21C813.19 455.21 841.75 477.16 842.38 510.29H806.46C805.19 494.81 791.61 485.42 772.45 485.42C753.29 485.42 740.85 494.43 740.85 508.01C740.85 519.3 749.73 525.65 770.8 530.47L793.01 535.16C829.69 543.03 845.68 558.76 845.68 586.69C845.68 622.22 816.87 644.68 771.44 644.68C726.01 644.68 699.36 623.74 698.22 589.35H735.15Z" fill="#8745F3"/>
<path d="M916.1 641.51V573.11L852.39 458.39H894.14L935.13 536.56H936.02L977.14 458.39H1018.26L954.43 573.11V641.51H916.1Z" fill="#8745F3"/>
<path d="M1061.89 589.35C1063.67 604.45 1079.4 614.35 1099.71 614.35C1120.02 614.35 1134.1 604.58 1134.1 591.12C1134.1 579.19 1125.34 572.59 1103.26 567.64L1079.4 562.44C1045.64 555.21 1029.02 538.07 1029.02 511.3C1029.02 477.54 1058.21 455.21 1099.07 455.21C1139.93 455.21 1168.49 477.16 1169.12 510.29H1133.2C1131.93 494.81 1118.35 485.42 1099.19 485.42C1080.03 485.42 1067.59 494.43 1067.59 508.01C1067.59 519.3 1076.47 525.65 1097.54 530.47L1119.75 535.16C1156.43 543.03 1172.42 558.76 1172.42 586.69C1172.42 622.22 1143.61 644.68 1098.18 644.68C1052.75 644.68 1026.1 623.74 1024.96 589.35H1061.89Z" fill="#8745F3"/>
<path d="M1239.66 641.51V489.98H1186.74V458.38H1331.03V489.98H1277.98V641.51H1239.65H1239.66Z" fill="#8745F3"/>
<path d="M1473.53 641.51H1352.21V458.38H1473.53V489.98H1390.53V534.15H1468.83V563.59H1390.53V609.78H1473.53V641.51Z" fill="#8745F3"/>
<path d="M1660.95 641.51V517.9H1659.93L1610.18 639.73H1586.07L1536.32 517.9H1535.31V641.51H1501.17V458.38H1545.59L1597.62 588.2H1598.64L1650.67 458.38H1695.09V641.51H1660.95Z" fill="#8745F3"/>
<path d="M1755.59 589.35C1757.37 604.45 1773.1 614.35 1793.41 614.35C1813.72 614.35 1827.8 604.58 1827.8 591.12C1827.8 579.19 1819.04 572.59 1796.96 567.64L1773.1 562.44C1739.34 555.21 1722.72 538.07 1722.72 511.3C1722.72 477.54 1751.91 455.21 1792.77 455.21C1833.63 455.21 1862.19 477.16 1862.82 510.29H1826.9C1825.63 494.81 1812.05 485.42 1792.89 485.42C1773.73 485.42 1761.29 494.43 1761.29 508.01C1761.29 519.3 1770.17 525.65 1791.24 530.47L1813.45 535.16C1850.13 543.03 1866.12 558.76 1866.12 586.69C1866.12 622.22 1837.31 644.68 1791.88 644.68C1746.45 644.68 1719.8 623.74 1718.66 589.35H1755.59Z" fill="#8745F3"/>
</svg>
