<?xml version="1.0" encoding="UTF-8"?>
<svg id="Layer_1" data-name="Layer 1" xmlns="http://www.w3.org/2000/svg" viewBox="0 0 119.34 227.97">
  <defs>
    <style>
      .cls-1 {
        fill: #5020DF;
      }
    </style>
  </defs>
  <g>
    <path class="cls-1" d="M93.13,171.89h-.03v-.03l-4.35,1.7-26.73,10.34-3.33-.8v-.03l-4.48-1.08-.99,4.54-5.46,24.85-.99,4.51v.03l4.51,1.08.99-4.54,4.97-22.9.43-1.94,3.92.96,1.02.06,28.4-10.96v-.03l4.35-1.67-2.22-4.07Z"/>
    <polygon class="cls-1" points="109.3 201.43 76.43 223.03 51.28 216.98 52.26 212.44 75.57 218.03 103.19 199.88 91 177.66 91 177.63 95.35 175.96 109.3 201.43"/>
  </g>
  <path class="cls-1" d="M57.42,167.6l.25.06.12-.03-.37-.03ZM93.13,171.89h-.03v-.03l-6.39-11.67v-.03l-2.28-4.14-4.63,1.2-11.73,3.09-4.69,1.23-5.46,1.42-3.18-.74-.52-.12-3.55-.83-.99,4.48-3.15,14.38v.03l-.99,4.51,4.51,1.08,3.15.77h.03l4.44,1.08,3.92.96,1.02.06,28.4-10.96v-.03l4.35-1.67-2.22-4.07ZM62.02,183.89l-3.33-.8v-.03l-4.48-1.08-3.18-.77,3.15-14.38,3.21.77h.03l.25.06.12-.03,7.38-1.88,2.72-.71,13.46-3.46.74-.19,6.67,12.16-26.73,10.34Z"/>
  <path class="cls-1" d="M86.71,160.16v.03l4.04-1.08-4.04,1.05ZM95.04,155.87l-1.23-2.25-9.38,2.41-4.63,1.2,2.28,4.17,6.67,12.16,2.25,4.07,4.35-1.67,8.83-3.4-9.14-16.7ZM93.13,171.89h-.03v-.03l-6.39-11.67,4.04-1.08.68-.19,6.14,11.23-4.44,1.73ZM86.71,160.16v.03l4.04-1.08-4.04,1.05Z"/>
  <path class="cls-1" d="M54.21,181.98l-3.18-.74-4.51-1.08-8.89-2.13-1.17-.28-3.95-1.11-.03.12-.99,4.54-6.39,29.2,21.67,5.37,4.51,1.11.99-4.54,4.97-22.9.43-1.94,1.02-4.51v-.03l-4.48-1.08ZM30.57,207.26l5.43-24.88,9.54,2.28,4.51,1.08,3.15.77-5.43,24.85-17.19-4.1Z"/>
  <path class="cls-1" d="M37.63,178.03l8.89,2.13v-.03l-8.89-2.1ZM38.84,158.4l-4.38-1.05-2.62-.62-.8,3.77-4.23,19.69,4.69,1.11,4.51,1.08,9.54,2.28,4.51,1.08.99-4.51v-.03l3.15-14.38.49-2.28.06-2.31v-.03l-15.9-3.8ZM46.52,180.13l-8.89-2.1-1.17-.28-3.98-.99-.19-.03,2.44-11.23.68-3.15h.06l14.2,3.4-3.15,14.38Z"/>
  <path class="cls-1" d="M45.57,5.07l-22.65,5.89,5.22,25.93.93,4.57,4.51-1.17,15.46-4.01,4.44-1.17h.03l-7.93-30.03ZM32.63,35.72l-4.35-21.36,14.01-3.67,5.52,21.08-15.19,3.95Z"/>
  <path class="cls-1" d="M59.21,56.77l-5.74-21.67-1.17-4.48-4.48,1.14-15.19,3.95-4.51,1.17.93,4.57,4.48,21.98.93,4.57h.03l4.48-1.17,16.91-4.41,4.51-1.17-1.17-4.48ZM33.56,40.28l15.46-4.04v.03l5.68,21.64-16.67,4.35-4.48-21.98Z"/>
  <path class="cls-1" d="M86.96,4.94l-8.95,26.42-1.48,4.41,4.51,1.08,15.9,3.83,4.48,1.08,1.02-4.54,6.08-27.1-21.54-5.19ZM97.91,36.15l-15.4-3.7,7.47-22.01,13.02,3.15-5.09,22.56Z"/>
  <path class="cls-1" d="M97.91,36.15l-15.4-3.7-4.51-1.08-1.48,4.41-7.84,23.09-1.48,4.41,4.51,1.08,18.86,4.54,4.48,1.08,1.02-4.54,5.34-23.67,1.02-4.54-4.51-1.08ZM91.59,64.36l-18.4-4.41,7.84-23.09,15.9,3.83-5.34,23.67Z"/>
  <path class="cls-1" d="M66.86,106.12l-4.69-5.09-.22-.25-7.78-8.46-6.27-6.85-6.64-7.22v-.03l-.86-.93-4.29-1.33-10.8-3.27-1.85,2.35-2.04,2.59-10.59,13.46,3.92,5.46-11.2,13.43,11.64,12.25.77.83,3.95,3.39,13.43,11.54,12.28-15.59,6.42,5.06,14.94-21.23-.12-.12ZM32.73,131.33l-11.17-9.6-2.53-2.16-.89-.96-8.4-8.83,8.61-10.28,2.28-2.72-2.01-2.84-1.98-2.75,8.58-10.93,1.76-2.22,10.89,3.3,13.89,15.12,2.31,2.53,6.98,7.59-10,14.2-6.17-4.88-2.28,2.9-9.88,12.5Z"/>
  <path class="cls-1" d="M98.28,93.34l-1.17-2.07-4.48-8.06-.4-.71.34-1.57,2.47-10.96,1.02-4.54-4.48-1.08-18.4-4.41-4.51-1.08-1.48,4.41-2.01,5.93-2.87-.56-1.94-7.41-1.17-4.48-21.17,5.49-4.51,1.17.96,4.57,1.64,7.96.46,2.31.43,2.13.86.96,13.89,15.12,2.28,2.5.03.03,6.98,7.59-10,14.2-6.17-4.88-2.28,2.9-9.88,12.5-11.17-9.6-2.53-2.16-.99-.83-2.99-2.59.15,6.08.4,17.38,15.43,20.9,3.7,5,.12.19.62-3.33,14.2,3.4,4.51,1.08,3.21.77h.03l.37.03.46.03,7.28-1.91,2.35-.62,13.46-3.55.74-.19,4.63-1.2v-.03l4.04-1.05.68-.19,2.59-.68,1.02-2.38,9.38-22.22,1.17-2.78.22-.52,5.65-13.3-13.18-23.7ZM90.63,154.36l-10.83,2.87-11.73,3.06v.03l-4.69,1.2v.03l-5.46,1.42-3.18-.74-.52-.12-15.37-3.7-4.38-1.05-14.29-19.32-.25-11.57,13.43,11.54,12.28-15.59,6.42,5.06,14.94-21.23-.12-.12v-.03l-4.69-5.06-.22-.25-7.78-8.46-6.27-6.85-6.64-7.22v-.03l-2.31-11.39,16.91-4.41,2.69,10.25,9.72,1.85,3.43-10.15,18.86,4.54-2.69,12.04-.52,2.31,1.3,2.31,3.8,6.82,2.31,4.14,11.57,20.8-4.38,10.34-1.82,4.29-9.51,22.41ZM63.38,161.52v.03l-5.46,1.42-3.18-.74-.06,2.31-.49,2.28,3.21.77h.03l.37.03.46.03,7.28-1.91,2.35-.62v-.09l.19-4.72-4.69,1.2ZM68.07,160.28v.03l11.73-3.09-11.73,3.06Z"/>
  <path class="cls-1" d="M62.17,101.02l-.22-.25-7.72-8.52-6.23-6.88-.09.09-1.7,1.88-9.63-9.07-1.14-1.08-11.98-2.16-2.04,2.59,5.69.43,12.65,8.89,3.64,3.43-11.1,12.5-13.7-8.92h0l-2.65,3.64,2.38,1.91,9.48,7.53-9.69,11.57-.09.12-1.76,2.1,3.55,2.96,1.73-2.07,9.88-11.82,11.17,8.92,5,3.98,4.94,1.85,13.67-18.92.12-.15-4.17-4.57ZM36.68,108.18l10.93-12.76,11.79,11.6-.86,1.46-7.72,10.68-.62-.22-13.52-10.77Z"/>
  <polygon class="cls-1" points="98.28 93.34 94.76 96.52 78.65 111.09 77.48 111.89 76.15 111.27 66.86 106.12 66.86 106.09 54.09 99.02 54.05 98.99 51.21 97.41 51.77 96.49 54.18 92.32 60.81 80.93 92.57 80.93 92.23 82.51 92.63 83.22 92.63 85.56 63.47 85.56 57.57 95.62 76.96 106.43 92.45 92.38 95.57 89.54 97.11 91.27 98.28 93.34"/>
  <polygon class="cls-1" points="106.21 129.36 105.81 130.35 105.6 130.87 104.42 133.65 100.13 131.95 76.77 122.66 75.07 109.48 79.64 108.86 81 119.33 101.96 127.66 106.21 129.36"/>
  <polygon class="cls-1" points="80.6 120.96 78.78 123.46 68.96 137.04 68.07 160.28 68.07 160.31 67.88 165.04 67.88 165.13 65.54 165.75 65.17 165.75 63.22 165.65 63.38 161.55 63.38 161.52 64.39 135.44 76.31 118.99 76.83 118.25 80.6 120.96"/>
</svg>